<svg xmlns="http://www.w3.org/2000/svg" width="1024" height="1024" viewBox="154.4186553955078 -40.84416055679321 714.8773803710938 1105.8432006835938" class="colorable-icon reset-top-left-margin" data-export-recolorable-svg="true" overflow="visible" xmlns:xlink="http://www.w3.org/1999/xlink" fill="rgb(0, 0, 0)" stroke="none"><g fill="none" stroke="url(&quot;#theme-accent-gradient-linear&quot;) rgb(131, 94, 84)" stroke-width="45" stroke-linecap="round" stroke-linejoin="round"><path d="M 199.839,912.508 C 200.585,923.974 203.895,940.388 208.642,953.767 C 214.987,965.775 222.347,976.468 232.241,987.685 C 243.922,997.53 255.543,1004.893 267.939,1010.786 C 277.062,1014.031 298.903,1018.393 318.611,1019.931 L 392.163,1019.998" data-line="nan" stroke-width="45.0" fill="none" stroke="url(&quot;#theme-accent-gradient-linear&quot;) rgb(131, 94, 84)"/><path d="M 697.319,1019.999 C 713.318,1019.53 730.215,1017.749 742.609,1015.115 C 753.015,1011.894 765.441,1006.446 777.775,999.071 C 789.323,989.877 797.642,981.246 806.14,970.1 C 811.5,961.141 817.236,948.398 821.014,936.141 C 823.161,924.53 824.194,913.572 824.296,872.033" data-line="nan" stroke-width="45.0" fill="none" stroke="url(&quot;#theme-accent-gradient-linear&quot;) rgb(131, 94, 84)"/><path d="M 755.851,11.189 L 302.65,4.383" data-line="0.0" stroke-width="45.0" fill="none" stroke="url(&quot;#theme-accent-gradient-linear&quot;) rgb(131, 94, 84)"/><path d="M 446.914,907.728 L 578.365,907.348" data-line="2.0" stroke-width="45.0" fill="none" stroke="url(&quot;#theme-accent-gradient-linear&quot;) rgb(131, 94, 84)"/><path d="M 302.64753653490766,4.155839373851734 A 104.36054429868602,104.36054429868602 0 0,0 200.8351202410451,125.64605708336032" data-line="3.0" stroke-width="45.0" fill="none" stroke="url(&quot;#theme-accent-gradient-linear&quot;) rgb(131, 94, 84)"/><path d="M 199.67,125.84 L 199.839,912.508" data-line="4.0" stroke-width="45.0" fill="none" stroke="url(&quot;#theme-accent-gradient-linear&quot;) rgb(131, 94, 84)"/><path d="M 392.163,1019.998 L 697.319,1019.999" data-line="6.0" stroke-width="45.0" fill="none" stroke="url(&quot;#theme-accent-gradient-linear&quot;) rgb(131, 94, 84)"/><path d="M 824.296,872.033 L 824.093,110.25" data-line="8.0" stroke-width="45.0" fill="none" stroke="url(&quot;#theme-accent-gradient-linear&quot;) rgb(131, 94, 84)"/><path d="M 824.0627089548401,110.24952307014932 A 103.44156643997054,103.44156643997054 0 0,0 755.7966789029103,11.339285655280392" data-line="9.0" stroke-width="45.0" fill="none" stroke="url(&quot;#theme-accent-gradient-linear&quot;) rgb(131, 94, 84)"/></g></svg>