<svg xmlns="http://www.w3.org/2000/svg" width="1024" height="1024" viewBox="-41 93.78237915039062 1106 836.9766845703125" class="colorable-icon reset-top-left-margin" data-export-recolorable-svg="true" overflow="visible" xmlns:xlink="http://www.w3.org/1999/xlink" fill="rgb(0, 0, 0)" stroke="none"><g fill="none" stroke="url(&quot;#theme-accent-gradient-linear&quot;) rgb(131, 94, 84)" stroke-width="45" stroke-linecap="round" stroke-linejoin="round"><path d="M 117.213,701.992 C 87.555,760.693 76.8,778.643 67.577,792.058 C 54.843,808.102 40.608,823.326 27.675,835.146 L 5.606,853.041" data-line="nan" stroke-width="45.0" fill="none" stroke="url(&quot;#theme-accent-gradient-linear&quot;) rgb(131, 94, 84)"/><path d="M 1020.0,355.458 Q 987.28,372.917 894.573,411.573" data-line="nan" stroke-width="45.0" fill="none" stroke="url(&quot;#theme-accent-gradient-linear&quot;) rgb(131, 94, 84)"/><path d="M 510.299,571.368 C 497.253,574.177 490.757,573.973 481.467,572.228 Q 470.959,568.432 406.47,539.893" data-line="nan" stroke-width="45.0" fill="none" stroke="url(&quot;#theme-accent-gradient-linear&quot;) rgb(131, 94, 84)"/><path d="M 223.112,459.352 L 200.907,449.731" data-line="nan" stroke-width="45.0" fill="none" stroke="url(&quot;#theme-accent-gradient-linear&quot;) rgb(131, 94, 84)"/><path d="M 809.222,447.165 C 820.066,532.205 839.888,703.797 839.706,714.331 C 838.017,724.826 834.552,735.224 828.864,745.77" data-line="nan" stroke-width="45.0" fill="none" stroke="url(&quot;#theme-accent-gradient-linear&quot;) rgb(131, 94, 84)"/><path d="M 1020.0,355.458 Q 990.466,338.614 894.075,295.605" data-line="nan" stroke-width="45.0" fill="none" stroke="url(&quot;#theme-accent-gradient-linear&quot;) rgb(131, 94, 84)"/><path d="M 547.436,143.446 C 533.001,138.557 527.137,138.286 520.555,139.19 Q 508.64,143.026 457.069,164.256" data-line="nan" stroke-width="45.0" fill="none" stroke="url(&quot;#theme-accent-gradient-linear&quot;) rgb(131, 94, 84)"/><path d="M 26.351,341.616 Q 20.213,344.593 4.0,355.02" data-line="nan" stroke-width="45.0" fill="none" stroke="url(&quot;#theme-accent-gradient-linear&quot;) rgb(131, 94, 84)"/><path d="M 828.864,745.77 C 820.753,756.284 805.635,770.552 789.78,781.548 C 774.201,790.252 753.187,800.236 727.398,810.492 C 701.045,818.998 675.267,825.74 649.318,831.139 C 623.21,835.314 597.295,838.327 566.117,840.619 C 534.917,841.612 498.561,841.469 472.6,840.502 C 441.435,838.015 410.221,834.229 384.294,829.982 C 353.285,823.402 327.117,816.417 301.422,808.089 C 275.351,797.951 249.094,785.842 228.698,774.552 C 213.035,764.027 202.622,755.266 192.896,745.074 C 181.848,729.112 177.016,718.685 173.023,703.457 Q 172.241,693.353 173.421,678.186" data-line="nan" stroke-width="45.0" fill="none" stroke="url(&quot;#theme-accent-gradient-linear&quot;) rgb(131, 94, 84)"/><path d="M 130.139,885.759 L 117.213,701.992" data-line="0.0" stroke-width="45.0" fill="none" stroke="url(&quot;#theme-accent-gradient-linear&quot;) rgb(131, 94, 84)"/><path d="M 130.139,885.759 L 5.606,853.041" data-line="1.0" stroke-width="45.0" fill="none" stroke="url(&quot;#theme-accent-gradient-linear&quot;) rgb(131, 94, 84)"/><path d="M 201.34,446.085 L 486.795,329.441" data-line="6.0" stroke-width="45.0" fill="none" stroke="url(&quot;#theme-accent-gradient-linear&quot;) rgb(131, 94, 84)"/><path d="M 194.925,446.7 L 4.0,355.02" data-line="7.0" stroke-width="45.0" fill="none" stroke="url(&quot;#theme-accent-gradient-linear&quot;) rgb(131, 94, 84)"/><path d="M 117.213,701.992 L 122.589,571.199" data-line="8.0" stroke-width="45.0" fill="none" stroke="url(&quot;#theme-accent-gradient-linear&quot;) rgb(131, 94, 84)"/><path d="M 894.573,411.573 L 510.299,571.368" data-line="9.0" stroke-width="45.0" fill="none" stroke="url(&quot;#theme-accent-gradient-linear&quot;) rgb(131, 94, 84)"/><path d="M 173.421,678.186 L 200.907,449.731" data-line="10.0" stroke-width="45.0" fill="none" stroke="url(&quot;#theme-accent-gradient-linear&quot;) rgb(131, 94, 84)"/><path d="M 406.47,539.893 L 223.112,459.352" data-line="11.0" stroke-width="45.0" fill="none" stroke="url(&quot;#theme-accent-gradient-linear&quot;) rgb(131, 94, 84)"/><path d="M 122.80823217840512,571.2058888281529 A 149.11463232047544,149.11463232047544 0 0,1 195.5605307660548,447.7673307001413" data-line="11.0" stroke-width="45.0" fill="none" stroke="url(&quot;#theme-accent-gradient-linear&quot;) rgb(131, 94, 84)"/><path d="M 894.075,295.605 L 547.436,143.446" data-line="15.0" stroke-width="45.0" fill="none" stroke="url(&quot;#theme-accent-gradient-linear&quot;) rgb(131, 94, 84)"/><path d="M 457.069,164.256 L 26.351,341.616" data-line="17.0" stroke-width="45.0" fill="none" stroke="url(&quot;#theme-accent-gradient-linear&quot;) rgb(131, 94, 84)"/></g></svg>