<svg width="846" height="198" viewBox="0 0 846 198" xmlns="http://www.w3.org/2000/svg"><mask id="satori_om-id"><rect x="0" y="0" width="846" height="198" fill="#fff"/></mask><defs><clipPath id="satori_bc-id-0"><path x="3" y="0" width="843" height="198" d="M15,0 h821.88372 a9.11628,9.11628 0 0 1 9.11628,9.11628 v179.76744000000002 a9.11628,9.11628 0 0 1 -9.11628,9.11628 h-821.88372 a12,12 0 0 1 -12,-12 v-174 a12,12 0 0 1 12,-12"/></clipPath></defs><mask id="satori_om-id-0"><rect x="3" y="3" width="840" height="192" fill="#fff"/><path width="843" height="198" fill="none" stroke="#000" stroke-width="6" d="M6.515000000000001,3.5150000000000006 A12,12 0 0 1 15,0 h821.88372 a9.11628,9.11628 0 0 1 9.11628,9.11628 v179.76744000000002 a9.11628,9.11628 0 0 1 -9.11628,9.11628 h-821.88372 A12,12 0 0 1 6.515000000000001,194.485"/></mask><path x="3" y="0" width="843" height="198" fill="rgb(255, 252, 250)" d="M15,0 h821.88372 a9.11628,9.11628 0 0 1 9.11628,9.11628 v179.76744000000002 a9.11628,9.11628 0 0 1 -9.11628,9.11628 h-821.88372 a12,12 0 0 1 -12,-12 v-174 a12,12 0 0 1 12,-12"/><path width="843" height="198" clip-path="url(#satori_bc-id-0)" fill="none" stroke="rgb(209, 200, 198)" stroke-width="6" d="M6.515000000000001,3.5150000000000006 A12,12 0 0 1 15,0 h821.88372 a9.11628,9.11628 0 0 1 9.11628,9.11628 v179.76744000000002 a9.11628,9.11628 0 0 1 -9.11628,9.11628 h-821.88372 A12,12 0 0 1 6.515000000000001,194.485"/><mask id="satori_om-id-0-0"><rect x="0" y="0" width="12" height="198" fill="#fff"/></mask><path x="0" y="0" width="12" height="198" fill="rgb(131, 94, 84)" d="M9.11628,0 h2.8837200000000003 a0,0 0 0 1 0,0 v198 a0,0 0 0 1 0,0 h-2.8837200000000003 a9.11628,9.11628 0 0 1 -9.11628,-9.11628 v-179.76744 a9.11628,9.11628 0 0 1 9.11628,-9.11628"/></svg>