<svg xmlns="http://www.w3.org/2000/svg" width="1024" height="1024" viewBox="-41.14710068702698 82.15443420410156 1106.0731201171875 859.62060546875" class="colorable-icon reset-top-left-margin" data-export-recolorable-svg="true" overflow="visible" xmlns:xlink="http://www.w3.org/1999/xlink" fill="rgb(0, 0, 0)" stroke="none"><g fill="none" stroke="url(&quot;#theme-accent-gradient-linear&quot;) rgb(131, 94, 84)" stroke-width="45" stroke-linecap="round" stroke-linejoin="round"><path d="M 968.759,533.716 C 904.455,497.457 888.159,489.952 866.857,482.507 C 839.653,476.674 818.103,474.688 791.375,475.365 C 767.917,478.853 741.885,486.082 718.356,495.906 C 695.013,509.184 675.53,523.699 657.265,540.875 C 642.75,558.37 624.607,584.916 614.742,608.842" data-line="nan" stroke-width="45.0" fill="none" stroke="url(&quot;#theme-accent-gradient-linear&quot;) rgb(131, 94, 84)"/><path d="M 614.742,608.842 C 606.224,634.666 602.735,650.629 600.409,666.827 C 599.408,693.438 601.877,720.165 607.991,747.123 C 613.147,763.116 617.573,773.996 625.462,789.845 C 631.984,800.778 648.301,822.605 658.408,833.424 C 669.123,843.417 690.263,859.584 701.069,866.423 C 717.752,875.408 733.585,882.323 744.334,886.103 C 771.382,892.873 803.724,896.605 814.539,896.775 C 830.766,895.489 857.778,891.06 884.701,882.986 C 901.121,876.046 912.143,870.378 934.012,856.542 C 955.047,839.243 964.98,829.272 974.542,818.23 C 989.704,796.486 1001.065,774.816 1011.293,747.699 C 1016.389,725.966 1018.71,709.75 1019.926,693.535 C 1019.015,666.45 1015.837,644.833 1010.407,623.272 C 1002.636,601.731 992.429,579.588 968.759,533.716" data-line="nan" stroke-width="45.0" fill="none" stroke="url(&quot;#theme-accent-gradient-linear&quot;) rgb(131, 94, 84)"/><path d="M 397.638,304.661 C 397.116,205.792 395.94,195.034 391.37,180.529 C 386.587,171.369 380.268,162.351 371.928,153.609 C 363.342,146.604 355.757,141.702 345.373,136.416 C 334.408,132.372 319.581,128.374 308.792,127.161 C 288.118,127.049 274.638,128.378 263.526,130.422 C 253.16,133.673 241.61,138.68 231.895,144.366 C 223.171,150.805 215.356,158.07 208.305,166.206 C 195.91,185.301 188.304,201.074 162.982,261.259" data-line="nan" stroke-width="45.0" fill="none" stroke="url(&quot;#theme-accent-gradient-linear&quot;) rgb(131, 94, 84)"/><path d="M 4.862,706.913 C 4.0,690.076 4.79,668.003 7.285,648.892 C 13.285,624.596 18.842,607.361 26.087,590.412 L 53.329,537.552" data-line="nan" stroke-width="45.0" fill="none" stroke="url(&quot;#theme-accent-gradient-linear&quot;) rgb(131, 94, 84)"/><path d="M 834.534,201.393 C 825.669,182.969 814.406,166.246 802.512,153.47 C 789.849,143.707 777.552,136.812 753.525,129.774 C 740.467,127.562 716.832,127.108 699.343,129.25 C 683.981,133.696 667.279,142.312 655.987,150.548 C 644.789,161.609 635.592,174.869 630.892,186.874 L 626.604,206.738" data-line="nan" stroke-width="45.0" fill="none" stroke="url(&quot;#theme-accent-gradient-linear&quot;) rgb(131, 94, 84)"/><path d="M 101.32602935950739,507.3499380006093 A 210.7125902001841,210.7125902001841 0 1,1 3.8528993675464562,707.015458407567" data-line="2.0" stroke-width="45.0" fill="none" stroke="url(&quot;#theme-accent-gradient-linear&quot;) rgb(131, 94, 84)"/><path d="M 975.635,537.648 L 834.534,201.393" data-line="3.0" stroke-width="45.0" fill="none" stroke="url(&quot;#theme-accent-gradient-linear&quot;) rgb(131, 94, 84)"/><path d="M 624.2421852406792,585.4145188227303 A 189.05371009878496,189.05371009878496 0 0,0 399.5436703348321,586.4522556501151" data-line="4.0" stroke-width="45.0" fill="none" stroke="url(&quot;#theme-accent-gradient-linear&quot;) rgb(131, 94, 84)"/><path d="M 511.901,285.225 L 511.797,549.879" data-line="5.0" stroke-width="45.0" fill="none" stroke="url(&quot;#theme-accent-gradient-linear&quot;) rgb(131, 94, 84)"/><path d="M 626.0582466660486,305.72372873313776 A 329.6951244400717,329.6951244400717 0 0,0 397.95325329119237,305.5184237891591" data-line="6.0" stroke-width="45.0" fill="none" stroke="url(&quot;#theme-accent-gradient-linear&quot;) rgb(131, 94, 84)"/><path d="M 101.814,508.126 L 53.329,537.552" data-line="10.0" stroke-width="45.0" fill="none" stroke="url(&quot;#theme-accent-gradient-linear&quot;) rgb(131, 94, 84)"/><path d="M 626.604,206.738 L 626.436,304.702" data-line="12.0" stroke-width="45.0" fill="none" stroke="url(&quot;#theme-accent-gradient-linear&quot;) rgb(131, 94, 84)"/><path d="M 162.982,261.259 L 41.499,553.656" data-line="13.0" stroke-width="45.0" fill="none" stroke="url(&quot;#theme-accent-gradient-linear&quot;) rgb(131, 94, 84)"/></g></svg>