<svg xmlns="http://www.w3.org/2000/svg" width="1024" height="1024" viewBox="6.569000244140625 -40.14473628997803 1010.862060546875 1105.42724609375" class="colorable-icon reset-top-left-margin" data-export-recolorable-svg="true" overflow="visible" xmlns:xlink="http://www.w3.org/1999/xlink" fill="rgb(0, 0, 0)" stroke="none"><g fill="none" stroke="rgb(68, 55, 40)" stroke-width="45" stroke-linecap="round" stroke-linejoin="round"><path d="M 969.286,193.643 C 970.71,165.359 970.289,155.497 968.441,145.598 C 964.887,135.568 959.513,125.638 948.362,111.427 C 939.435,102.841 924.502,91.239 904.644,78.762 C 885.137,68.596 860.502,57.787 835.683,48.519 C 811.236,40.571 781.796,32.485 752.285,25.8 L 722.675,20.308" data-line="nan" stroke-width="45.0" fill="none" stroke="rgb(68, 55, 40)"/><path d="M 970.329,856.61 C 969.32,868.935 966.201,879.518 961.005,890.296 C 955.02,899.368 944.761,911.231 933.978,921.115 C 919.933,931.895 902.235,943.431 885.019,952.892 C 867.095,961.347 845.512,970.086 825.966,976.937 Q 778.435,990.33 729.625,1000.726" data-line="nan" stroke-width="45.0" fill="none" stroke="rgb(68, 55, 40)"/><path d="M 236.993,987.602 C 187.524,973.123 162.524,964.119 142.457,955.762 C 127.006,948.366 111.672,939.585 95.805,928.607 C 82.945,917.813 75.423,910.219 65.726,898.145 C 60.406,889.241 55.432,877.556 52.386,861.396 L 52.239,814.828" data-line="nan" stroke-width="45.0" fill="none" stroke="rgb(68, 55, 40)"/><path d="M 824.129,745.65 C 790.678,755.405 755.844,763.705 715.618,771.464 C 674.812,777.711 647.902,780.908 588.651,785.759 C 546.953,787.613 514.809,788.065 475.363,787.318 C 433.786,785.106 384.474,780.798 349.869,776.501 C 307.965,770.112 269.157,762.753 234.074,754.53 L 202.193,745.424" data-line="nan" stroke-width="45.0" fill="none" stroke="rgb(68, 55, 40)"/><path d="M 802.366,519.794 C 775.44,526.854 746.202,533.388 684.81,543.826 C 630.682,550.039 578.805,553.765 551.875,554.649 C 487.879,554.937 409.094,550.995 374.629,547.698 C 339.695,543.32 308.106,538.306 276.176,532.115" data-line="nan" stroke-width="45.0" fill="none" stroke="rgb(68, 55, 40)"/><path d="M 276.176,532.115 C 237.215,522.848 199.552,511.768 163.286,498.854 C 133.46,486.042 110.931,474.157 93.289,462.185 Q 82.346,452.968 54.408,426.553" data-line="nan" stroke-width="45.0" fill="none" stroke="rgb(68, 55, 40)"/><path d="M 807.595,285.463 C 771.763,294.695 732.519,302.812 688.029,310.245 C 641.123,316.351 601.694,320.04 557.473,322.371 C 523.014,322.995 481.369,322.588 439.377,320.827 C 397.69,317.414 350.729,311.793 302.126,304.291 C 262.111,296.267 223.316,286.71 190.201,276.857 L 158.289,265.378" data-line="nan" stroke-width="45.0" fill="none" stroke="rgb(68, 55, 40)"/><path d="M 722.675,20.308 C 693.183,15.816 648.978,10.679 614.505,7.333 C 580.109,5.239 506.267,4.0 444.249,5.551 C 378.076,10.146 310.1,18.757 280.629,23.822 C 251.912,29.778 226.18,36.109 200.579,43.481" data-line="nan" stroke-width="45.0" fill="none" stroke="rgb(68, 55, 40)"/><path d="M 200.579,43.481 C 159.359,57.85 126.855,72.755 111.124,81.713 C 98.452,90.163 86.107,99.813 76.382,108.946 C 66.352,120.602 61.268,128.126 57.619,135.164 C 54.494,144.355 52.592,154.259 52.198,161.735 L 53.975,195.735" data-line="nan" stroke-width="45.0" fill="none" stroke="rgb(68, 55, 40)"/><path d="M 972.431,657.983 L 970.329,856.61" data-line="0.0" stroke-width="45.0" fill="none" stroke="rgb(68, 55, 40)"/><path d="M 967.458657420849,661.7531024494529 A 326.01422079511246,326.01422079511246 0 0,1 824.0058739991308,745.2042787685793" data-line="1.0" stroke-width="45.0" fill="none" stroke="rgb(68, 55, 40)"/><path d="M 972.143,424.42 L 967.698,661.993" data-line="2.0" stroke-width="45.0" fill="none" stroke="rgb(68, 55, 40)"/><path d="M 55.105,659.796 L 52.051,424.324" data-line="3.0" stroke-width="45.0" fill="none" stroke="rgb(68, 55, 40)"/><path d="M 970.3266441308757,427.73990811330293 A 355.4331109234109,355.4331109234109 0 0,1 802.19254156339,519.0359547936213" data-line="4.0" stroke-width="45.0" fill="none" stroke="rgb(68, 55, 40)"/><path d="M 972.396,190.697 L 969.458,426.844" data-line="5.0" stroke-width="45.0" fill="none" stroke="rgb(68, 55, 40)"/><path d="M 54.408,426.553 L 51.569,193.566" data-line="6.0" stroke-width="45.0" fill="none" stroke="rgb(68, 55, 40)"/><path d="M 969.9176146634982,194.2513733649904 A 317.26888463882335,317.26888463882335 0 0,1 807.3870598589602,284.48492431788674" data-line="7.0" stroke-width="45.0" fill="none" stroke="rgb(68, 55, 40)"/><path d="M 729.625,1000.726 C 572.6571977672229,1026.5294558027322 431.5943354509053,1031.1876246639285 236.993,987.602" data-line="10.0" stroke-width="45.0" fill="none" stroke="rgb(68, 55, 40)"/><path d="M 52.239,814.828 L 52.202,657.117" data-line="12.0" stroke-width="45.0" fill="none" stroke="rgb(68, 55, 40)"/><path d="M 202.39953594698372,744.5691277820292 A 307.496320871355,307.496320871355 0 0,1 54.49716631145543,660.3889250825312" data-line="14.0" stroke-width="45.0" fill="none" stroke="rgb(68, 55, 40)"/><path d="M 158.33784612023354,265.24710159225754 A 272.9760073253802,272.9760073253802 0 0,1 54.092895332207945,195.62510657474405" data-line="18.0" stroke-width="45.0" fill="none" stroke="rgb(68, 55, 40)"/></g></svg>