<svg xmlns="http://www.w3.org/2000/svg" width="1024" height="1024" viewBox="-27.243000030517578 71.41799926757812 1092.2429809570312 881.2091064453125" class="colorable-icon reset-top-left-margin" data-export-recolorable-svg="true" overflow="visible" xmlns:xlink="http://www.w3.org/1999/xlink" fill="rgb(0, 0, 0)" stroke="none"><g fill="none" stroke="rgb(68, 55, 40)" stroke-width="45" stroke-linecap="round" stroke-linejoin="round"><path d="M 645.778,761.101 C 590.024,800.314 577.228,805.788 561.815,808.72 C 553.397,808.736 544.908,807.467 535.992,804.794 C 527.843,801.183 518.195,794.26 494.47,771.43" data-line="nan" stroke-width="45.0" fill="none" stroke="rgb(68, 55, 40)"/><path d="M 551.706,695.95 C 445.595,596.951 437.486,592.333 428.459,589.4 Q 421.616,588.657 408.056,588.919" data-line="nan" stroke-width="45.0" fill="none" stroke="rgb(68, 55, 40)"/><path d="M 551.706,695.95 C 573.9,671.171 593.553,653.05 619.485,633.18 C 639.614,621.481 665.399,611.286 691.471,604.615 Q 720.016,600.272 754.746,598.111" data-line="nan" stroke-width="45.0" fill="none" stroke="rgb(68, 55, 40)"/><path d="M 821.086,598.904 C 842.181,600.425 864.265,603.764 886.462,608.917 C 905.441,615.116 924.121,623.208 940.143,632.232 C 958.113,644.761 972.709,657.219 985.962,671.359 C 994.538,682.877 1002.799,696.689 1009.466,711.815 C 1014.025,726.495 1017.291,743.408 1019.367,764.456 L 1019.914,788.017" data-line="nan" stroke-width="45.0" fill="none" stroke="rgb(68, 55, 40)"/><circle cx="780.1108455640614" cy="425.0090974120696" r="125.3288203640142" data-line="0.0" stroke-width="45.0" fill="none" stroke="rgb(68, 55, 40)"/><path d="M 751.939,116.418 L 17.922,116.812" data-line="2.0" stroke-width="45.0" fill="none" stroke="rgb(68, 55, 40)"/><path d="M 17.922,116.812 L 17.757,645.748" data-line="3.0" stroke-width="45.0" fill="none" stroke="rgb(68, 55, 40)"/><path d="M 301.647,646.154 L 17.757,645.748" data-line="4.0" stroke-width="45.0" fill="none" stroke="rgb(68, 55, 40)"/><path d="M 751.939,116.418 L 752.162,222.221" data-line="5.0" stroke-width="45.0" fill="none" stroke="rgb(68, 55, 40)"/><path d="M 296.56,480.324 L 406.423,587.376" data-line="12.0" stroke-width="45.0" fill="none" stroke="rgb(68, 55, 40)"/><path d="M 645.733,907.627 L 645.778,761.101" data-line="14.0" stroke-width="45.0" fill="none" stroke="rgb(68, 55, 40)"/><path d="M 754.746,598.111 L 821.086,598.904" data-line="14.0" stroke-width="45.0" fill="none" stroke="rgb(68, 55, 40)"/><path d="M 926.65,907.627 L 926.749,782.248" data-line="22.0" stroke-width="45.0" fill="none" stroke="rgb(68, 55, 40)"/><path d="M 494.47,771.43 L 399.961,679.388" data-line="23.0" stroke-width="45.0" fill="none" stroke="rgb(68, 55, 40)"/><path d="M 400.3294517090719,678.8958283151508 A 54.29022746809568,54.29022746809568 0 0,1 404.58540880203645,589.0919415179785" data-line="24.0" stroke-width="45.0" fill="none" stroke="rgb(68, 55, 40)"/><path d="M 1019.914,788.017 L 1020.0,906.222" data-line="25.0" stroke-width="45.0" fill="none" stroke="rgb(68, 55, 40)"/></g></svg>