<svg xmlns="http://www.w3.org/2000/svg" width="1024" height="1024" viewBox="260.0506286621094 -41 503.7719421386719 1106" class="colorable-icon reset-top-left-margin" data-export-recolorable-svg="true" overflow="visible" xmlns:xlink="http://www.w3.org/1999/xlink" fill="rgb(0, 0, 0)" stroke="none"><g fill="none" stroke="rgb(255, 255, 255)" stroke-width="45" stroke-linecap="round" stroke-linejoin="round"><path d="M 519.333,9.88 C 542.09,27.817 562.379,45.06 583.925,64.932 C 601.996,83.057 619.846,102.519 637.564,123.679 C 653.408,144.547 666.756,164.038 678.494,183.286 C 687.807,200.673 695.713,218.161 702.341,236.168 C 707.779,255.41 711.231,272.785 713.631,294.238 C 713.913,309.828 712.652,327.381 709.554,345.437 C 704.732,362.943 698.05,380.211 689.209,397.435 C 677.454,415.454 664.985,430.948 652.431,443.855 C 636.743,457.273 622.589,467.25 609.044,475.321 C 589.771,484.506 570.793,491.266 553.056,495.71 C 539.131,497.975 511.802,500.645 483.344,497.849 C 467.886,495.19 448.555,490.032 432.975,484.262 C 413.583,474.949 398.092,465.621 382.879,454.521 C 367.39,440.804 353.327,425.631 341.533,410.089 C 331.895,394.48 324.087,378.874 318.096,363.511 C 312.56,344.129 309.285,324.878 308.064,305.684 C 308.628,290.39 311.187,271.006 315.434,251.839 C 321.263,232.934 327.364,217.145 336.273,197.962 C 346.896,178.559 359.029,159.283 375.723,135.892 C 390.921,116.564 410.791,93.558 429.135,74.226 C 448.101,55.882 467.27,38.83 486.849,22.793 L 511.703,4.0" data-line="nan" stroke-width="45.0" fill="none" stroke="rgb(255, 255, 255)"/><path d="M 660.535,913.651 C 672.345,908.619 680.072,904.03 688.02,897.99 C 695.732,890.659 702.266,882.87 709.848,870.934 C 715.084,859.084 717.388,851.238 718.732,843.436 C 719.378,831.716 716.566,800.634 710.407,773.433 C 701.69,750.171 689.327,726.973 681.438,715.265 C 672.133,703.427 661.625,692.01 650.222,681.128 C 630.589,665.656 607.196,651.543 583.864,641.23 C 556.813,633.216 529.7,629.007 502.692,628.319 C 488.804,629.192 474.86,631.093 447.899,637.687 C 434.019,642.704 419.746,649.013 409.345,654.366 C 394.541,663.399 373.604,679.575 353.825,699.632 C 337.052,722.154 329.351,735.138 321.361,751.656 C 315.397,767.467 310.887,783.162 307.602,798.931 C 305.506,815.186 304.622,834.565 305.248,846.39 C 307.209,855.136 311.552,864.126 316.817,871.257 C 324.053,877.815 331.848,882.644 342.916,886.602 Q 350.686,887.716 360.776,887.883" data-line="nan" stroke-width="45.0" fill="none" stroke="rgb(255, 255, 255)"/><path d="M 511.692,194.584 L 511.71,565.641" data-line="1.0" stroke-width="45.0" fill="none" stroke="rgb(255, 255, 255)"/><path d="M 519.333,9.88 L 511.703,4.0" data-line="2.0" stroke-width="45.0" fill="none" stroke="rgb(255, 255, 255)"/><path d="M 511.845,917.007 L 660.535,913.651" data-line="4.0" stroke-width="45.0" fill="none" stroke="rgb(255, 255, 255)"/><path d="M 512.311,1019.584 L 511.663,882.274" data-line="5.0" stroke-width="45.0" fill="none" stroke="rgb(255, 255, 255)"/><path d="M 511.663,882.274 L 511.776,781.135" data-line="6.0" stroke-width="45.0" fill="none" stroke="rgb(255, 255, 255)"/><path d="M 336.004,1019.936 L 685.089,1020.0" data-line="7.0" stroke-width="45.0" fill="none" stroke="rgb(255, 255, 255)"/><path d="M 360.776,887.883 L 511.624,887.956" data-line="9.0" stroke-width="45.0" fill="none" stroke="rgb(255, 255, 255)"/></g></svg>