<svg xmlns="http://www.w3.org/2000/svg" width="1024" height="1024" viewBox="-43.54618155956268 -44.15428268909454 1112.1721801757812 1113.154296875" class="colorable-icon reset-top-left-margin" data-export-recolorable-svg="true" overflow="visible" xmlns:xlink="http://www.w3.org/1999/xlink" fill="rgb(0, 0, 0)" stroke="none"><g fill="none" stroke="rgb(255, 255, 255)" stroke-width="45" stroke-linecap="round" stroke-linejoin="round"><path d="M 538.45,140.11 C 539.21,72.47 536.84,56.97 531.05,39.86 C 527.75,33.63 522.09,25.79 514.82,18.42 C 508.72,13.93 493.1,6.06 481.51,2.55 C 470.74,0.66 452.44,0.32 443.33,1.64 C 433.0,4.56 424.08,8.54 415.39,13.8 C 407.63,20.23 402.47,26.03 397.37,33.7 C 393.68,41.06 387.87,60.51 382.73,122.68" data-line="nan" stroke-width="45.0" fill="none" stroke="rgb(255, 255, 255)"/><path d="M 542.93,133.59 C 566.39,99.51 573.43,90.66 582.86,81.65 C 587.95,77.86 597.87,72.27 612.74,67.57 C 627.96,66.32 643.13,68.53 653.3,72.23 C 658.57,75.01 668.91,82.53 677.63,92.06 C 684.0,102.42 689.44,118.19 691.89,133.66 C 692.62,143.97 692.58,188.28 695.49,219.27 L 694.7,227.0" data-line="nan" stroke-width="45.0" fill="none" stroke="rgb(255, 255, 255)"/><path d="M 511.18,921.54 C 490.67,920.3 462.19,917.26 440.7,913.71 C 419.91,909.07 395.16,901.97 377.18,895.7 C 355.17,886.68 336.77,877.94 318.45,868.04 C 295.77,854.12 276.1,840.31 256.78,825.1 C 239.25,809.91 224.23,795.33 207.59,777.41 L 190.1,756.8" data-line="nan" stroke-width="45.0" fill="none" stroke="rgb(255, 255, 255)"/><path d="M 375.94,116.27 C 350.53,92.33 342.0,85.44 331.62,79.02 C 321.29,74.48 305.86,71.15 285.72,71.14 C 270.63,74.5 260.31,79.4 250.62,86.25 C 242.33,95.14 236.02,105.45 232.18,115.52 C 229.95,125.51 228.14,140.67 227.76,197.05" data-line="nan" stroke-width="45.0" fill="none" stroke="rgb(255, 255, 255)"/><path d="M 991.58,801.67 C 1002.36,787.56 1011.08,772.49 1017.76,756.41 L 1021.79,741.22" data-line="nan" stroke-width="45.0" fill="none" stroke="rgb(255, 255, 255)"/><path d="M 27.48,546.24 C 16.57,531.17 8.84,517.66 3.1,503.15 C 0.06,487.81 1.32,473.86 6.14,457.95 C 12.9,445.21 20.82,434.77 32.98,423.94 C 47.07,416.64 58.08,413.94 76.25,413.69 C 88.05,415.79 98.7,420.32 108.73,426.91 L 122.41,438.21" data-line="nan" stroke-width="45.0" fill="none" stroke="rgb(255, 255, 255)"/><path d="M 201.7,516.49 L 230.41,542.12" data-line="nan" stroke-width="45.0" fill="none" stroke="rgb(255, 255, 255)"/><path d="M 828.67,242.94 C 828.25,229.74 826.39,219.67 821.62,206.7 C 816.26,197.62 809.28,189.08 799.29,180.77 C 789.63,175.4 778.82,171.6 766.4,169.9 C 755.62,170.26 746.3,172.05 736.09,175.93 C 727.32,181.28 721.87,185.77 694.89,212.89" data-line="nan" stroke-width="45.0" fill="none" stroke="rgb(255, 255, 255)"/><path d="M 556.92,815.51 C 544.16,802.33 535.63,791.3 528.76,780.32 C 522.58,767.73 517.82,754.91 514.2,740.27 C 512.34,726.23 512.14,710.86 513.73,695.48 C 517.07,680.73 521.11,669.06 527.48,655.51 C 535.17,642.94 544.45,631.12 555.45,620.18 C 566.44,611.58 578.12,604.38 591.15,598.13 C 603.37,593.83 617.36,590.59 630.96,588.98 C 643.59,588.85 657.49,590.25 669.89,592.94 C 680.9,596.6 691.37,601.43 700.86,607.01 C 712.92,615.54 732.12,632.13 768.1,667.63" data-line="nan" stroke-width="45.0" fill="none" stroke="rgb(255, 255, 255)"/><path d="M 1021.79,741.22 C 1023.44,730.01 1024.0,718.81 1023.38,703.77 C 1022.06,693.89 1019.41,682.28 1015.22,669.84 C 1011.44,661.16 1004.97,649.44 998.26,639.71 C 990.04,629.95 981.69,621.58 972.26,613.78 C 962.96,607.45 952.63,601.68 932.2,593.68 C 921.89,591.11 910.8,589.44 901.12,588.85 C 887.22,589.28 868.91,592.5 849.79,599.38 C 832.92,608.78 814.03,622.96 799.07,636.6 L 768.1,667.63" data-line="nan" stroke-width="45.0" fill="none" stroke="rgb(255, 255, 255)"/><path d="M 539.79,421.31 L 542.93,133.59" data-line="1.0" stroke-width="45.0" fill="none" stroke="rgb(255, 255, 255)"/><path d="M 828.54,538.18 L 828.67,242.94" data-line="4.0" stroke-width="45.0" fill="none" stroke="rgb(255, 255, 255)"/><path d="M 381.79,426.45 L 375.94,116.27" data-line="6.0" stroke-width="45.0" fill="none" stroke="rgb(255, 255, 255)"/><path d="M 190.1,756.8 L 27.48,546.24" data-line="9.0" stroke-width="45.0" fill="none" stroke="rgb(255, 255, 255)"/><path d="M 768.83,1024.0 L 991.58,801.67" data-line="11.0" stroke-width="45.0" fill="none" stroke="rgb(255, 255, 255)"/><path d="M 122.41,438.21 L 201.7,516.49" data-line="14.0" stroke-width="45.0" fill="none" stroke="rgb(255, 255, 255)"/><path d="M 768.83,1024.0 L 556.92,815.51" data-line="15.0" stroke-width="45.0" fill="none" stroke="rgb(255, 255, 255)"/><path d="M 694.7,227.0 L 692.49,431.89" data-line="17.0" stroke-width="45.0" fill="none" stroke="rgb(255, 255, 255)"/><path d="M 227.76,197.05 L 230.41,542.12" data-line="20.0" stroke-width="45.0" fill="none" stroke="rgb(255, 255, 255)"/></g></svg>