<svg xmlns="http://www.w3.org/2000/svg" viewBox="-16.812000274658203 -41 1057.6240234375 1106" width="200px" height="200px" class="colorable-icon reset-top-left-margin" data-export-recolorable-svg="true" overflow="visible" xmlns:xlink="http://www.w3.org/1999/xlink" fill="rgb(0, 0, 0)" stroke="none"><g id="skeleton-paths" stroke-width="45.0" fill="rgb(0, 0, 0)" stroke="none"><path id="path-0-0" d="M172.553 624.325L173.306 627.164L174.170 630.423L175.379 634.992L176.602 639.611L177.855 644.340L179.123 649.117L180.378 653.850L181.603 658.473L182.816 663.053L184.051 667.715L185.302 672.435L186.558 677.166L187.783 681.789L188.996 686.371L190.231 691.034L191.482 695.753L192.737 700.483L193.962 705.106L195.176 709.689L196.411 714.352L197.662 719.071L198.917 723.800L200.142 728.423L201.355 733.007L202.591 737.671L203.842 742.389L205.096 747.117L206.322 751.740L207.535 756.325L208.771 760.989L210.022 765.707L211.276 770.434L212.501 775.057L213.715 779.643L214.951 784.308L216.202 789.025L217.455 793.750L218.681 798.373L219.895 802.961L221.131 807.626L222.382 812.343L223.635 817.067L224.860 821.690L226.075 826.279L227.311 830.945L228.562 835.661L229.815 840.384L231.040 845.007L232.255 849.597L233.491 854.264L234.741 858.979L235.994 863.701L237.219 868.324L238.435 872.915L239.664 877.557L240.917 882.286L242.178 887.041L243.428 891.750L244.653 896.373L245.872 900.976L247.110 905.648L248.362 910.359L249.616 915.066L250.850 919.687L252.079 924.287L253.329 928.934L254.601 933.643L255.894 938.402L257.181 943.132L258.457 947.815L259.707 952.430L260.952 957.042L262.223 961.699L263.573 966.372L265.104 971.096L266.926 975.843L269.167 980.686L271.927 985.570L275.204 990.347L278.938 994.957L282.949 999.166L287.187 1003.026L291.651 1006.407L296.382 1009.399L301.259 1011.975L306.159 1014.144L310.905 1015.909L315.600 1017.260L320.252 1018.288L324.952 1019.023L329.630 1019.538L334.259 1019.835L338.885 1019.966L343.515 1020L348.176 1019.996L352.838 1019.992L357.500 1019.988L362.161 1019.984L366.823 1019.980L371.485 1019.976L376.117 1019.951L380.755 1019.870L385.367 1019.662L390.043 1019.264L394.698 1018.569L399.474 1017.492L404.332 1015.963L409.366 1013.987L414.384 1011.562L419.378 1008.566L424.154 1005.032L428.783 1000.839L432.907 996.306L436.569 991.343L439.474 986.341L441.778 981.243L443.441 976.323L444.597 971.468L445.305 966.729L445.556 962.025L445.373 957.363L444.770 952.712L443.878 948.058L442.791 943.410L441.618 938.774L440.405 934.159L439.177 929.515L437.938 924.829L436.695 920.132L435.460 915.463L434.237 910.839L433.009 906.194L431.769 901.507L430.527 896.811L429.293 892.143L428.070 887.519L426.841 882.873L425.601 878.185L424.359 873.489L423.125 868.824L421.902 864.200L420.673 859.551L419.433 854.863L418.192 850.168L416.958 845.504L415.735 840.880L414.505 836.230L413.265 831.541L412.024 826.847L410.790 822.184L409.567 817.560L408.337 812.909L407.097 808.219L405.856 803.525L404.623 798.865L403.400 794.241L402.169 789.587L400.926 784.886L399.675 780.157L398.433 775.460L397.204 770.812L395.981 766.188L394.747 761.522L393.505 756.827L392.265 752.139L391.036 747.492L389.813 742.868L388.579 738.201L387.337 733.505L386.097 728.818L384.869 724.172L383.646 719.549L382.411 714.880L381.169 710.183L379.929 705.496L378.701 700.853L377.478 696.229L376.243 691.558L375 686.861L373.761 682.175L372.534 677.533L371.311 672.909L370.075 668.237L368.833 663.539L367.593 658.854L366.420 654.531L365.388 650.707L364.455 647.356L363.542 643.921L362.474 639.991L361.288 635.599L360.396 632.303L359.630 629.510" stroke="url(&quot;#theme-accent-gradient-linear&quot;) rgb(131, 94, 84)" stroke-width="45" fill="none" stroke-linecap="round" stroke-linejoin="round"/><path id="path-1-0" d="M191.013 585.297L192.360 585.298L194.290 585.299L196.427 585.301L198.829 585.302L200.895 585.304L203.345 585.307L205.539 585.309L208.007 585.312L210.200 585.315L212.669 585.318L214.862 585.320L217.330 585.323L219.523 585.326L221.992 585.328L224.185 585.331L226.654 585.334L228.847 585.336L231.315 585.339L233.508 585.342L235.977 585.345L238.170 585.347L240.639 585.350L242.832 585.353L245.300 585.355L247.493 585.358L249.962 585.361L252.155 585.363L254.624 585.366L256.817 585.369L259.285 585.372L261.478 585.374L263.947 585.377L266.140 585.379L268.609 585.382L270.802 585.385L273.270 585.388L275.463 585.390L277.932 585.393L280.125 585.396L282.594 585.399L284.787 585.401L287.255 585.404L289.448 585.406L291.938 585.410L294.638 585.413L297.814 585.418L300.414 585.422L302.465 585.425" stroke="url(&quot;#theme-accent-gradient-linear&quot;) rgb(131, 94, 84)" stroke-width="45" fill="none" stroke-linecap="round" stroke-linejoin="round"/><path id="path-2-0" d="M148.522 584.558L146.236 584.401L143.435 584.196L140.250 583.985L137.266 583.777L135.007 583.570L132.493 583.247L130.292 582.889L127.780 582.433L125.721 582.021L123.386 581.510L121.303 581.018L118.799 580.386L116.502 579.754L114.026 579L111.786 578.264L109.266 577.352L106.474 576.268L102.963 574.779L99.293 573.102L95.552 571.293L92.207 569.511L89.067 567.779L86.128 565.980L83.651 564.421L81.087 562.636L78.781 560.989L76.159 559.007L73.899 557.224L71.492 555.193L69.324 553.268L66.852 550.965L64.633 548.788L62.205 546.268L60.118 543.969L57.903 541.417L56.054 539.177L54.178 536.792L52.582 534.638L50.855 532.161L49.279 529.760L47.520 526.962L45.833 524.098L44.097 521.072L42.490 518.065L41.176 515.487L39.954 512.890L38.962 510.648L37.885 508.076L36.806 505.304L35.538 501.727L34.242 497.705L33.069 493.735L32.168 490.212L31.543 487.498L31.049 484.879L30.666 482.756L30.268 480.285L29.947 478.147L29.605 475.559L29.346 473.421L29.053 471.021L28.816 469.042L28.569 466.639L28.424 464.482L28.327 461.985L28.295 459.792L28.271 457.324L28.260 455.131L28.256 452.662L28.257 450.469L28.262 448L28.266 445.807L28.268 443.339L28.268 441.146L28.267 438.677L28.265 436.484L28.263 434.015L28.261 431.822L28.259 429.354L28.258 427.161L28.256 424.692L28.254 422.499L28.253 420.031L28.251 417.837L28.249 415.369L28.248 413.176L28.246 410.707L28.244 408.514L28.243 406.046L28.241 403.852L28.239 401.384L28.238 399.191L28.236 396.722L28.234 394.529L28.233 392.061L28.231 389.867L28.229 387.399L28.228 385.206L28.226 382.737L28.224 380.544L28.223 378.076L28.221 375.883L28.217 373.414L28.209 371.221L28.198 368.752L28.188 366.559L28.188 364.091L28.204 361.898L28.262 359.429L28.356 357.236L28.520 354.770L28.694 352.630L28.924 350.127L29.188 347.541L29.522 344.528L29.932 341.386L30.420 338.290L30.992 335.182L31.653 332.133L32.434 329.101L33.453 325.696L34.634 322.252L35.871 318.832L36.961 316.082L38.034 313.526L39.020 311.287L40.223 308.699L41.524 306.059L43.041 303.125L44.617 300.215L46.037 297.675L47.683 294.860L49.521 291.918L51.996 288.187L54.594 284.524L57.337 280.923L59.964 277.772L62.656 274.766L65.446 271.868L68.284 269.090L71.250 266.378L74.318 263.766L77.443 261.283L80.519 258.968L83.451 256.906L85.933 255.210L88.461 253.613L90.719 252.243L93.311 250.776L95.667 249.517L98.326 248.203L101.132 246.925L104.653 245.443L108.577 243.954L112.454 242.577L115.890 241.511L118.567 240.712L121.216 240.047L123.544 239.474L126.111 238.946L128.185 238.547L130.495 238.161L132.489 237.852L134.938 237.510L137.125 237.238L139.643 236.976L141.798 236.796L144.083 236.661L145.918 236.597L148.017 236.553L150.316 236.525L153.155 236.463L156.157 236.411L158.813 236.370L161.390 236.358L163.584 236.355L166.052 236.354L168.245 236.352L170.714 236.351L172.907 236.349L175.375 236.348L177.569 236.346L180.037 236.345L182.230 236.343L184.699 236.342L186.892 236.340L189.360 236.339L191.554 236.337L194.022 236.336L196.215 236.334L198.684 236.333L200.877 236.331L203.345 236.330L205.539 236.328L208.007 236.327L210.200 236.325L212.669 236.324L214.862 236.322L217.395 236.321L219.629 236.320L222.165 236.319L224.320 236.318L226.880 236.317L229.505 236.315L232.506 236.312L235.487 236.310L238.089 236.307L240.639 236.306L242.832 236.304L245.300 236.303L247.493 236.301L249.962 236.300L252.155 236.298L254.624 236.297L256.817 236.295L259.285 236.294L261.478 236.292L263.947 236.291L266.140 236.289L268.609 236.288L270.802 236.286L273.270 236.285L275.463 236.283L277.932 236.282L280.125 236.280L282.594 236.279L284.787 236.277L287.280 236.271L289.461 236.261L291.956 236.207L294.126 236.118L296.740 235.954L299.162 235.787L301.211 235.643L302.720 235.548" stroke="url(&quot;#theme-accent-gradient-linear&quot;) rgb(131, 94, 84)" stroke-width="45" fill="none" stroke-linecap="round" stroke-linejoin="round"/><path id="path-3-0" d="M323.307 270.599L323.307 273.421L323.307 276.754L323.307 281.415L323.307 286.077L323.307 290.738L323.307 295.400L323.307 300.062L323.307 304.723L323.308 309.385L323.308 314.047L323.308 318.708L323.308 323.370L323.308 328.032L323.308 332.693L323.308 337.355L323.308 342.017L323.309 346.678L323.309 351.340L323.309 356.002L323.309 360.663L323.309 365.325L323.309 369.987L323.309 374.648L323.309 379.310L323.310 383.972L323.310 388.633L323.310 393.295L323.310 397.924L323.310 402.565L323.310 407.192L323.310 411.889L323.310 416.571L323.311 421.265L323.311 425.926L323.311 430.588L323.311 435.250L323.311 439.911L323.311 444.573L323.311 449.235L323.311 453.896L323.312 458.558L323.312 463.220L323.312 467.881L323.312 472.543L323.312 477.205L323.312 481.866L323.312 486.528L323.312 491.190L323.313 495.851L323.313 500.513L323.313 505.175L323.313 509.836L323.313 514.498L323.313 519.160L323.313 523.821L323.313 528.483L323.313 533.145L323.314 537.806L323.314 542.468L323.314 547.129L323.314 550.462L323.314 553.284" stroke="url(&quot;#theme-accent-gradient-linear&quot;) rgb(131, 94, 84)" stroke-width="45" fill="none" stroke-linecap="round" stroke-linejoin="round"/><path id="path-4-0" d="M343.304 231.238L346.480 230.798L349.957 230.299L354.707 229.598L359.345 228.888L363.956 228.156L368.641 227.392L373.279 226.609L377.956 225.794L382.586 224.960L387.286 224.091L391.957 223.200L396.670 222.277L401.348 221.329L406.021 220.360L410.695 219.362L415.356 218.344L420.014 217.301L424.673 216.234L429.321 215.152L433.968 214.052L438.618 212.941L443.260 211.823L447.934 210.688L452.626 209.537L457.296 208.373L461.939 207.196L466.572 206.006L471.282 204.781L476.032 203.529L480.758 202.267L485.400 201.011L489.987 199.754L494.592 198.469L499.275 197.130L503.989 195.738L508.713 194.303L513.407 192.847L518.097 191.378L522.784 189.901L527.469 188.416L532.151 186.923L536.830 185.423L541.507 183.914L546.182 182.399L550.854 180.877L555.524 179.347L560.191 177.810L564.856 176.266L569.519 174.715L574.179 173.158L578.837 171.593L583.493 170.023L588.142 168.431L592.780 166.806L597.402 165.131L602.010 163.418L606.610 161.678L611.223 159.927L615.921 158.138L620.648 156.329L625.413 154.490L630.046 152.688L634.665 150.881L639.314 149.051L644.027 147.190L648.775 145.305L653.392 143.464L657.976 141.622L662.513 139.779L667.158 137.870L671.831 135.935L676.564 133.961L681.261 131.982L685.964 129.937L690.714 127.799L695.403 125.601L700.183 123.290L704.895 120.958L709.688 118.551L714.403 116.156L719.039 113.769L723.682 111.342L728.237 108.930L732.892 106.448L737.438 104.017L742.116 101.515L746.754 99.035L751.483 96.506L756.156 94.007L760.759 91.544L765.411 89.056L770.048 86.576L774.775 84.045L779.441 81.536L784.031 79.048L788.651 76.511L793.277 73.945L798.044 71.263L802.742 68.595L807.424 65.898L812.043 63.220L816.745 60.478L821.411 57.752L826.075 55.026L830.684 52.334L835.418 49.574L840.179 46.796L844.903 44.035L849.541 41.320L854.150 38.628L858.855 35.882L863.521 33.157L868.182 30.432L872.791 27.740L877.496 24.995L882.161 22.269L886.795 19.557L891.286 16.940L895.848 14.350L900.377 11.935L905.025 9.717L909.589 7.909L914.185 6.452L918.628 5.411L922.669 4.666L926.130 4.246L928.945 4.036L931.343 4L933.747 4.024L936.281 4.166L939.160 4.385L942.110 4.746L944.767 5.215L947.527 5.875L950.386 6.803L954.017 8.069L957.628 9.504L961.124 11.112L963.791 12.527L966.438 14.212L968.814 15.803L971.585 17.865L974.002 19.849L976.622 22.329L979.109 25.079L981.981 28.677L984.810 32.758L987.359 36.899L989.303 40.539L990.615 43.369L991.660 46.044L992.572 48.832L993.451 51.913L994.199 55.040L994.740 57.668L995.153 60.367L995.411 62.607L995.574 65.162L995.644 67.224L995.666 69.667L995.710 71.819L995.752 74.424L995.793 76.668L995.809 79.156L995.812 81.309L995.812 83.752L995.812 85.945L995.812 88.414L995.812 90.607L995.812 93.075L995.812 95.269L995.812 97.737L995.812 99.930L995.812 102.399L995.812 104.592L995.812 107.060L995.812 109.254L995.812 111.722L995.812 113.915L995.812 116.384L995.812 118.577L995.812 121.045L995.812 123.239L995.812 125.707L995.812 127.900L995.812 130.369L995.812 132.562L995.812 135.030L995.812 137.223L995.812 139.692L995.812 141.885L995.812 144.354L995.812 146.547L995.812 149.015L995.812 151.208L995.812 153.677L995.812 155.870L995.812 158.339L995.812 160.532L995.812 163L995.812 165.193L995.812 167.662L995.812 169.855L995.812 172.324L995.812 174.517L995.812 176.985L995.812 179.178L995.812 181.647L995.812 183.840L995.812 186.309L995.812 188.502L995.812 190.970L995.812 193.163L995.812 195.632L995.812 197.825L995.812 200.294L995.812 202.487L995.812 204.955L995.812 207.148L995.812 209.617L995.812 211.810L995.812 214.278L995.812 216.472L995.812 218.940L995.812 221.133L995.812 223.602L995.812 225.795L995.812 228.263L995.812 230.457L995.812 232.925L995.812 235.118L995.812 237.587L995.812 239.780L995.812 242.248L995.812 244.442L995.812 246.910L995.812 249.103L995.812 251.572L995.812 253.765L995.812 256.233L995.812 258.426L995.812 260.895L995.812 263.088L995.812 265.557L995.812 267.750L995.812 270.218L995.812 272.411L995.812 274.880L995.812 277.073L995.812 279.542L995.812 281.735L995.812 284.203L995.812 286.396L995.812 288.865L995.812 291.058L995.812 293.527L995.812 295.720L995.812 298.188L995.812 300.381L995.812 302.850L995.812 305.043L995.812 307.512L995.812 309.705L995.812 312.173L995.812 314.366L995.812 316.835L995.812 319.028L995.812 321.497L995.812 323.690L995.812 326.158L995.812 328.351L995.812 330.820L995.812 333.013L995.812 335.482L995.812 337.675L995.812 340.143L995.812 342.336L995.812 344.805L995.812 346.998L995.812 349.466L995.812 351.660L995.812 354.128L995.812 356.321L995.812 358.790L995.812 360.983L995.812 363.451L995.812 365.645L995.812 368.113L995.812 370.306L995.812 372.775L995.812 374.968L995.812 377.436L995.812 379.630L995.812 382.098L995.812 384.291L995.812 386.760L995.812 388.953L995.812 391.421L995.812 393.614L995.812 396.083L995.812 398.276L995.812 400.745L995.812 402.938L995.812 405.406L995.812 407.599L995.812 410.068L995.812 412.261L995.812 414.730L995.812 416.923L995.812 419.391L995.812 421.584L995.812 424.053L995.812 426.246L995.812 428.715L995.812 430.908L995.812 433.376L995.812 435.569L995.812 438.038L995.812 440.231L995.812 442.700L995.812 444.893L995.812 447.361L995.812 449.554L995.812 452.023L995.812 454.216L995.812 456.685L995.812 458.878L995.812 461.346L995.812 463.539L995.812 466.008L995.812 468.201L995.812 470.670L995.812 472.863L995.812 475.331L995.812 477.524L995.812 479.993L995.812 482.186L995.812 484.654L995.812 486.848L995.812 489.316L995.812 491.509L995.812 493.978L995.812 496.171L995.812 498.639L995.812 500.833L995.812 503.301L995.812 505.494L995.812 507.963L995.812 510.156L995.812 512.624L995.812 514.818L995.812 517.286L995.812 519.479L995.812 521.948L995.812 524.141L995.812 526.609L995.812 528.802L995.812 531.271L995.812 533.464L995.812 535.933L995.812 538.126L995.812 540.594L995.812 542.787L995.812 545.256L995.812 547.449L995.812 549.918L995.812 552.111L995.812 554.579L995.812 556.772L995.812 559.241L995.812 561.434L995.812 563.903L995.812 566.096L995.812 568.564L995.812 570.757L995.812 573.226L995.812 575.419L995.812 577.888L995.812 580.081L995.812 582.549L995.812 584.742L995.812 587.211L995.812 589.404L995.812 591.873L995.812 594.066L995.812 596.534L995.812 598.727L995.812 601.196L995.812 603.389L995.812 605.857L995.812 608.051L995.812 610.519L995.812 612.712L995.812 615.181L995.812 617.374L995.812 619.842L995.812 622.036L995.812 624.504L995.812 626.697L995.812 629.166L995.812 631.359L995.812 633.827L995.812 636.021L995.812 638.489L995.812 640.682L995.812 643.151L995.812 645.344L995.812 647.812L995.812 650.006L995.812 652.474L995.812 654.667L995.812 657.136L995.812 659.329L995.812 661.797L995.812 663.990L995.812 666.459L995.812 668.652L995.812 671.121L995.812 673.314L995.812 675.782L995.812 677.975L995.812 680.444L995.812 682.637L995.812 685.106L995.812 687.299L995.812 689.767L995.812 691.960L995.812 694.429L995.812 696.622L995.812 699.091L995.812 701.284L995.812 703.752L995.812 705.945L995.812 708.414L995.812 710.607L995.812 713.076L995.812 715.269L995.812 717.737L995.812 719.930L995.812 722.399L995.812 724.592L995.812 727.061L995.812 729.254L995.812 731.722L995.812 733.915L995.812 736.384L995.812 738.577L995.812 741.045L995.812 743.239L995.812 745.707L995.812 747.900L995.805 750.369L995.784 752.562L995.723 755.030L995.619 757.224L995.438 759.700L995.225 761.841L994.895 764.414L994.395 767.155L993.555 770.812L992.488 774.573L991.188 778.376L989.763 781.819L988.110 785.217L986.349 788.543L984.656 791.404L982.962 794L981.326 796.168L979.334 798.560L977.278 800.779L974.735 803.267L972.445 805.320L969.818 807.459L967.616 809.052L964.928 810.838L962.514 812.242L959.765 813.753L957.434 814.909L954.805 816.081L952.074 817.099L948.483 818.171L944.854 819.053L941.257 819.723L938.623 820.082L936.137 820.236L934.170 820.260L931.632 820.214L928.963 820.136L925.730 819.997L922.514 819.714L919.726 819.315L917.012 818.727L914.371 817.928L911.013 816.795L907.539 815.448L903.978 813.974L900.755 812.497L897.627 810.969L894.559 809.397L891.901 807.987L889.211 806.508L886.683 805.053L883.699 803.328L880.770 801.604L878.062 800.014L875.442 798.454L873.240 797.134L870.840 795.688L868.865 794.491L866.500 793.054L864.348 791.737L861.841 790.201L859.562 788.807L857.033 787.261L854.792 785.900L852.324 784.399L850.152 783.093L847.539 781.524L845.254 780.160L842.591 778.575L840.074 777.080L837.099 775.324L834.120 773.569L831.446 772.006L828.792 770.463L826.260 769.009L823.273 767.293L820.322 765.602L817.604 764.041L814.962 762.526L812.683 761.224L810.080 759.733L807.533 758.279L804.536 756.563L801.533 754.844L798.847 753.304L796.184 751.776L793.648 750.325L790.650 748.608L787.635 746.889L784.987 745.378L782.481 743.958L780.479 742.831L778.073 741.487L775.869 740.262L773.243 738.801L770.985 737.543L768.522 736.182L766.475 735.061L763.996 733.719L761.801 732.543L759.142 731.127L756.551 729.776L753.491 728.179L750.406 726.578L747.707 725.171L745.155 723.842L743.120 722.778L740.669 721.499L738.422 720.335L735.705 718.961L732.943 717.588L729.874 716.081L726.736 714.542L723.625 713.021L720.498 711.493L717.371 709.964L714.253 708.436L711.121 706.903L708.141 705.442L705.521 704.162L703 702.931L700.839 701.874L698.426 700.698L696.359 699.687L693.864 698.469L691.690 697.399L689.101 696.131L686.596 694.915L683.612 693.487L680.601 692.078L677.904 690.835L675.250 689.639L672.698 688.504L669.674 687.161L666.633 685.814L663.918 684.615L661.252 683.447L658.691 682.333L655.654 681.016L652.598 679.699L649.873 678.523L647.200 677.376L644.635 676.279L641.584 674.988L638.425 673.657L635.094 672.260L631.405 670.725L627.413 669.093L623.432 667.496L619.743 666.043L616.351 664.725L612.620 663.289L608.491 661.717L603.971 660.018L599.362 658.310L594.756 656.626L590.226 654.990L586.097 653.517L582.491 652.241L579.660 651.251L577.044 650.341L574.793 649.567L572.257 648.695L569.614 647.798L566.168 646.633L562.136 645.285L557.589 643.779L552.919 642.251L548.243 640.739L543.563 639.241L538.877 637.759L534.181 636.291L529.591 634.874L525.508 633.625L522.019 632.566L519.354 631.756L516.802 630.983L514.534 630.300L512.041 629.557L509.766 628.889L507.319 628.185L505.034 627.546L502.576 626.874L500.289 626.251L497.771 625.571L495.484 624.945L492.891 624.255L490.197 623.534L486.784 622.636L483.244 621.695L479.735 620.772L476.955 620.040L474.285 619.347L471.606 618.651L468.192 617.769L464.705 616.864L461.233 615.969L458.514 615.269L455.779 614.568L453.059 613.874L449.552 612.997L446.037 612.127L442.506 611.279L439.797 610.632L437.054 609.979L434.361 609.337L430.825 608.488L427.264 607.652L423.674 606.791L420.451 606.031L416.889 605.172L413.322 604.334L409.735 603.475L406.509 602.713L402.952 601.856L399.380 601.017L395.840 600.186L393.053 599.581L390.410 598.999L387.985 598.520L385.157 597.907L382.361 597.366L380.155 596.905L378.539 596.597" stroke="url(&quot;#theme-accent-gradient-linear&quot;) rgb(131, 94, 84)" stroke-width="45" fill="none" stroke-linecap="round" stroke-linejoin="round"/><path id="path-connection-1" d="M172.553 624.325L161.126 585.346" stroke="url(&quot;#theme-accent-gradient-linear&quot;) rgb(131, 94, 84)" stroke-width="45" fill="none" stroke-linecap="round" stroke-linejoin="round"/><path id="path-connection-2" d="M191.013 585.297L161.126 585.346" stroke="url(&quot;#theme-accent-gradient-linear&quot;) rgb(131, 94, 84)" stroke-width="45" fill="none" stroke-linecap="round" stroke-linejoin="round"/><path id="path-connection-3" d="M148.522 584.558L161.126 585.346" stroke="url(&quot;#theme-accent-gradient-linear&quot;) rgb(131, 94, 84)" stroke-width="45" fill="none" stroke-linecap="round" stroke-linejoin="round"/><path id="path-connection-4" d="M359.630 629.510L348.683 589.610" stroke="url(&quot;#theme-accent-gradient-linear&quot;) rgb(131, 94, 84)" stroke-width="45" fill="none" stroke-linecap="round" stroke-linejoin="round"/><path id="path-connection-5" d="M302.465 585.425L321.998 585.579" stroke="url(&quot;#theme-accent-gradient-linear&quot;) rgb(131, 94, 84)" stroke-width="45" fill="none" stroke-linecap="round" stroke-linejoin="round"/><path id="path-connection-6" d="M323.314 553.284L321.998 585.579" stroke="url(&quot;#theme-accent-gradient-linear&quot;) rgb(131, 94, 84)" stroke-width="45" fill="none" stroke-linecap="round" stroke-linejoin="round"/><path id="path-connection-7" d="M378.539 596.597L321.998 585.579" stroke="url(&quot;#theme-accent-gradient-linear&quot;) rgb(131, 94, 84)" stroke-width="45" fill="none" stroke-linecap="round" stroke-linejoin="round"/><path id="path-connection-8" d="M302.720 235.548L322.253 234.233" stroke="url(&quot;#theme-accent-gradient-linear&quot;) rgb(131, 94, 84)" stroke-width="45" fill="none" stroke-linecap="round" stroke-linejoin="round"/><path id="path-connection-9" d="M323.307 270.599L322.253 234.233" stroke="url(&quot;#theme-accent-gradient-linear&quot;) rgb(131, 94, 84)" stroke-width="45" fill="none" stroke-linecap="round" stroke-linejoin="round"/><path id="path-connection-10" d="M343.304 231.238L322.253 234.233" stroke="url(&quot;#theme-accent-gradient-linear&quot;) rgb(131, 94, 84)" stroke-width="45" fill="none" stroke-linecap="round" stroke-linejoin="round"/></g></svg>