<svg xmlns="http://www.w3.org/2000/svg" width="1024" height="1024" viewBox="-41.08888244628906 6.108062744140625 1105.4466552734375 1011.88623046875" class="colorable-icon reset-top-left-margin" data-export-recolorable-svg="true" overflow="visible" xmlns:xlink="http://www.w3.org/1999/xlink" fill="rgb(0, 0, 0)" stroke="none"><g fill="none" stroke="rgb(68, 55, 40)" stroke-width="45" stroke-linecap="round" stroke-linejoin="round"><path d="M 795.5,824.77 C 787.509,840.999 784.081,851.496 782.246,860.208 C 781.023,880.968 783.786,899.808 790.369,918.075 C 799.001,932.615 811.559,946.96 826.433,958.575 C 834.904,963.416 845.991,968.183 863.555,972.764 C 883.613,973.783 900.429,971.385 916.383,966.242 C 933.273,956.855 948.067,944.333 953.808,937.929 C 960.541,928.443 968.886,912.114 973.779,895.218 C 975.605,878.727 974.196,860.2 970.185,844.948 C 962.619,828.341 952.427,813.853 938.284,800.059 C 928.955,793.468 921.48,789.26 907.396,783.516 C 888.709,779.682 872.038,779.224 855.205,781.933 C 838.759,787.577 826.339,794.123 805.722,807.767" data-line="nan" stroke-width="45.0" fill="none" stroke="rgb(68, 55, 40)"/><path d="M 816.194,206.274 C 808.91,188.461 806.654,180.09 804.614,167.73 C 804.095,159.548 804.668,147.286 808.938,126.711 C 813.576,114.355 817.663,106.157 829.175,89.244 C 836.572,81.164 844.723,73.874 861.229,62.901 C 869.496,58.931 881.973,54.443 892.433,51.834 C 901.314,50.572 921.909,50.629 942.569,54.675 C 955.267,59.32 963.701,63.486 980.922,75.198 C 989.107,82.72 996.39,90.888 1007.713,108.052 C 1014.707,124.76 1017.038,133.075 1019.285,145.689 C 1019.885,162.377 1016.751,183.358 1010.781,200.44 C 1001.0,217.396 994.324,225.935 986.74,233.884 C 978.535,241.003 969.962,247.106 952.884,256.217 C 944.479,259.337 931.717,262.641 910.832,264.515 C 894.164,263.114 877.55,258.824 860.883,251.271 Q 848.224,243.23 825.665,225.729" data-line="nan" stroke-width="45.0" fill="none" stroke="rgb(68, 55, 40)"/><circle cx="111.28567733772049" cy="849.1196326912814" r="107.3745555882343" data-line="1.0" stroke-width="45.0" fill="none" stroke="rgb(68, 55, 40)"/><path d="M 653.5339976545882,376.1521330563882 A 191.5937640527012,191.5937640527012 0 0,0 364.48357970932045,627.6992586438033" data-line="2.0" stroke-width="45.0" fill="none" stroke="rgb(68, 55, 40)"/><path d="M 653.6887645064678,376.0162242862326 A 192.229777259932,192.229777259932 0 0,1 640.689911825732,643.8088173213592" data-line="3.0" stroke-width="45.0" fill="none" stroke="rgb(68, 55, 40)"/><path d="M 640.4012356366662,643.4821550484592 A 192.8196670875085,192.8196670875085 0 0,1 364.506595433001,627.6703850608632" data-line="4.0" stroke-width="45.0" fill="none" stroke="rgb(68, 55, 40)"/><path d="M 824.812,225.061 L 654.593,375.218" data-line="6.0" stroke-width="45.0" fill="none" stroke="rgb(68, 55, 40)"/><path d="M 363.502,628.542 L 193.729,777.791" data-line="7.0" stroke-width="45.0" fill="none" stroke="rgb(68, 55, 40)"/><path d="M 805.009,808.242 L 641.287,644.449" data-line="8.0" stroke-width="45.0" fill="none" stroke="rgb(68, 55, 40)"/><path d="M 795.5,824.77 L 805.276,808.509" data-line="9.0" stroke-width="45.0" fill="none" stroke="rgb(68, 55, 40)"/><path d="M 182.532,768.687 L 193.516,777.978" data-line="10.0" stroke-width="45.0" fill="none" stroke="rgb(68, 55, 40)"/><path d="M 816.194,206.274 L 825.182,224.735" data-line="11.0" stroke-width="45.0" fill="none" stroke="rgb(68, 55, 40)"/></g></svg>