<svg xmlns="http://www.w3.org/2000/svg" width="1024" height="1024" viewBox="-40.989999771118164 17.217498779296875 1105.0791625976562 989.6175537109375" class="colorable-icon reset-top-left-margin" data-export-recolorable-svg="true" overflow="visible" xmlns:xlink="http://www.w3.org/1999/xlink" fill="rgb(0, 0, 0)" stroke="none"><g fill="none" stroke="rgb(255, 255, 255)" stroke-width="45" stroke-linecap="round" stroke-linejoin="round"><path d="M 635.478,633.472 C 603.116,614.834 573.246,600.74 538.427,587.445 C 501.462,576.704 466.766,569.773 431.982,565.743 Q 399.583,564.744 362.604,566.466" data-line="nan" stroke-width="45.0" fill="none" stroke="rgb(255, 255, 255)"/><path d="M 995.674,647.242 C 1006.878,618.77 1014.463,591.779 1018.86,566.232 C 1019.933,540.516 1017.207,512.848 1011.344,487.738 C 1001.992,462.477 991.236,441.33 976.942,419.808 C 961.151,401.528 943.232,386.05 922.022,371.865 C 899.782,360.536 874.616,351.48 849.794,346.044 C 822.023,343.704 796.756,345.007 771.088,349.705 C 748.314,356.973 725.384,367.528 702.234,381.914 C 683.76,396.711 666.621,414.553 649.739,438.056 C 637.52,460.805 628.22,484.216 622.192,506.937 C 618.605,534.086 618.849,557.097 622.4,584.722 C 625.521,598.563 635.478,633.472 638.609,640.208" data-line="nan" stroke-width="45.0" fill="none" stroke="rgb(255, 255, 255)"/><path d="M 137.192,649.9 C 121.42,662.632 107.12,675.752 90.087,694.113 C 74.925,712.356 61.518,730.974 50.176,749.098 C 40.017,767.776 30.431,788.602 22.678,808.889 C 16.918,827.422 11.275,850.332 7.547,871.328 C 5.279,892.017 4.404,910.523 4.01,940.905 L 4.859,961.639" data-line="nan" stroke-width="45.0" fill="none" stroke="rgb(255, 255, 255)"/><circle cx="400.3688343244049" cy="273.83727978730576" r="211.6197747970104" data-line="0.0" stroke-width="45.0" fill="none" stroke="rgb(255, 255, 255)"/><path d="M 819.577,939.738 L 995.674,647.242" data-line="2.0" stroke-width="45.0" fill="none" stroke="rgb(255, 255, 255)"/><path d="M 638.609,640.208 L 819.577,939.738" data-line="3.0" stroke-width="45.0" fill="none" stroke="rgb(255, 255, 255)"/><path d="M 4.859,961.639 L 684.697,961.835" data-line="5.0" stroke-width="45.0" fill="none" stroke="rgb(255, 255, 255)"/><circle cx="818.7073275832462" cy="548.0490439919423" r="89.20802359966628" data-line="11.0" stroke-width="45.0" fill="none" stroke="rgb(255, 255, 255)"/><path d="M 362.61103416548787,566.5778559000946 A 418.0497070660457,418.0497070660457 0 0,0 137.23302194934743,649.9544287910869" data-line="13.0" stroke-width="45.0" fill="none" stroke="rgb(255, 255, 255)"/></g></svg>