<svg xmlns="http://www.w3.org/2000/svg" width="1024" height="1024" viewBox="135.99000549316406 -40.885000228881836 752.02099609375 1105.885009765625" class="colorable-icon reset-top-left-margin" data-export-recolorable-svg="true" overflow="visible" xmlns:xlink="http://www.w3.org/1999/xlink" fill="rgb(0, 0, 0)" stroke="none"><g fill="none" stroke="url(&quot;#theme-accent-gradient-linear&quot;) rgb(131, 94, 84)" stroke-width="45" stroke-linecap="round" stroke-linejoin="round"><path d="M 206.705,478.648 C 198.915,455.046 193.596,435.922 188.421,412.759 C 184.51,389.13 182.076,365.744 180.99,342.126 C 181.296,318.744 183.224,295.297 186.782,271.764 C 190.811,253.117 195.915,234.643 204.233,210.746 C 212.264,191.978 221.596,173.584 232.928,154.61 C 246.122,135.661 261.17,117.126 274.457,102.827 C 288.568,89.319 307.307,73.605 326.378,59.854 C 344.945,48.297 363.813,38.196 387.075,27.751 C 406.136,20.749 429.374,13.946 452.739,8.961 C 471.581,6.304 498.393,4.218 516.946,4.115 C 540.476,5.572 564.02,8.51 587.422,13.137 C 606.369,18.267 629.645,26.129 648.78,34.037 C 667.607,43.247 686.618,54.271 705.403,66.884 C 719.653,77.754 738.429,94.06 752.538,108.039 C 764.905,121.8 779.862,140.763 792.504,159.489 C 803.398,178.419 812.723,197.503 820.497,216.419 C 828.378,239.978 834.5,263.563 838.005,282.429 C 841.086,306.057 842.714,324.928 843.011,343.783 C 839.186,386.276 836.158,405.305 831.056,428.715 C 824.534,452.587 816.781,476.202 807.807,499.622 Q 797.589,523.208 773.923,570.339" data-line="nan" stroke-width="45.0" fill="none" stroke="url(&quot;#theme-accent-gradient-linear&quot;) rgb(131, 94, 84)"/><circle cx="510.808234156584" cy="339.45882572215174" r="151.3196746125715" data-line="0.0" stroke-width="45.0" fill="none" stroke="url(&quot;#theme-accent-gradient-linear&quot;) rgb(131, 94, 84)"/><path d="M 489.173,980.235 C 403.8609127369155,818.1075847519887 275.0250942902367,644.5588928382964 206.705,478.648" data-line="2.0" stroke-width="45.0" fill="none" stroke="url(&quot;#theme-accent-gradient-linear&quot;) rgb(131, 94, 84)"/><path d="M 489.173,980.235 L 511.313,1020.0" data-line="3.0" stroke-width="45.0" fill="none" stroke="url(&quot;#theme-accent-gradient-linear&quot;) rgb(131, 94, 84)"/><path d="M 773.923,570.339 L 511.313,1020.0" data-line="5.0" stroke-width="45.0" fill="none" stroke="url(&quot;#theme-accent-gradient-linear&quot;) rgb(131, 94, 84)"/></g></svg>