<svg xmlns="http://www.w3.org/2000/svg" width="1024" height="1024" viewBox="6.799999237060547 -41 1010.4000244140625 1105.969970703125" class="colorable-icon reset-top-left-margin" data-export-recolorable-svg="true" overflow="visible" xmlns:xlink="http://www.w3.org/1999/xlink" fill="rgb(0, 0, 0)" stroke="none"><g fill="none" stroke="rgb(68, 55, 40)" stroke-width="45" stroke-linecap="round" stroke-linejoin="round"><path d="M 433.51,529.95 L 124.672,530.002" data-line="0" stroke-width="45.0" fill="none" stroke="rgb(68, 55, 40)"/><path d="M 433.51,529.95 L 433.529,1019.953" data-line="1" stroke-width="45.0" fill="none" stroke="rgb(68, 55, 40)"/><path d="M 972.2,1019.756 L 51.8,1019.619" data-line="2" stroke-width="45.0" fill="none" stroke="rgb(68, 55, 40)"/><path d="M 124.672,530.002 L 123.713,1019.97" data-line="3" stroke-width="45.0" fill="none" stroke="rgb(68, 55, 40)"/><path d="M 900.465,356.324 L 586.069,356.63" data-line="5" stroke-width="45.0" fill="none" stroke="rgb(68, 55, 40)"/><path d="M 900.951,1019.953 L 900.465,356.324" data-line="6" stroke-width="45.0" fill="none" stroke="rgb(68, 55, 40)"/><path d="M 586.644,1019.953 L 586.069,356.63" data-line="7" stroke-width="45.0" fill="none" stroke="rgb(68, 55, 40)"/><path d="M 670.891,160.746 L 513.718,4.0" data-line="9" stroke-width="45.0" fill="none" stroke="rgb(68, 55, 40)"/><path d="M 670.891,160.746 L 674.023,164.82" data-line="10" stroke-width="45.0" fill="none" stroke="rgb(68, 55, 40)"/><path d="M 674.023,164.82 L 676.453,169.139" data-line="11" stroke-width="45.0" fill="none" stroke="rgb(68, 55, 40)"/><path d="M 676.453,169.139 L 677.859,173.47" data-line="12" stroke-width="45.0" fill="none" stroke="rgb(68, 55, 40)"/><path d="M 677.859,173.47 L 678.538,177.832" data-line="13" stroke-width="45.0" fill="none" stroke="rgb(68, 55, 40)"/><path d="M 678.538,177.832 L 678.766,355.824" data-line="14" stroke-width="45.0" fill="none" stroke="rgb(68, 55, 40)"/><path d="M 350.182,175.933 L 350.044,529.197" data-line="15" stroke-width="45.0" fill="none" stroke="rgb(68, 55, 40)"/><path d="M 350.182,175.933 L 350.517,173.227" data-line="16" stroke-width="45.0" fill="none" stroke="rgb(68, 55, 40)"/><path d="M 350.517,173.227 L 351.374,169.93" data-line="17" stroke-width="45.0" fill="none" stroke="rgb(68, 55, 40)"/><path d="M 351.374,169.93 L 352.85,166.325" data-line="18" stroke-width="45.0" fill="none" stroke="rgb(68, 55, 40)"/><path d="M 352.85,166.325 L 354.66,163.388" data-line="19" stroke-width="45.0" fill="none" stroke="rgb(68, 55, 40)"/><path d="M 354.66,163.388 L 356.464,161.079" data-line="20" stroke-width="45.0" fill="none" stroke="rgb(68, 55, 40)"/><path d="M 356.464,161.079 L 513.718,4.0" data-line="21" stroke-width="45.0" fill="none" stroke="rgb(68, 55, 40)"/><path d="M 780.811,457.778 L 708.919,458.544" data-line="34" stroke-width="45.0" fill="none" stroke="rgb(68, 55, 40)"/><path d="M 780.811,457.778 L 780.873,532.841" data-line="35" stroke-width="45.0" fill="none" stroke="rgb(68, 55, 40)"/><path d="M 780.873,532.841 L 708.806,532.351" data-line="36" stroke-width="45.0" fill="none" stroke="rgb(68, 55, 40)"/><path d="M 708.806,532.351 L 708.919,458.544" data-line="37" stroke-width="45.0" fill="none" stroke="rgb(68, 55, 40)"/><path d="M 780.777,629.848 L 708.591,630.087" data-line="44" stroke-width="45.0" fill="none" stroke="rgb(68, 55, 40)"/><path d="M 781.256,704.231 L 780.777,629.848" data-line="45" stroke-width="45.0" fill="none" stroke="rgb(68, 55, 40)"/><path d="M 781.256,704.231 L 709.046,703.915" data-line="46" stroke-width="45.0" fill="none" stroke="rgb(68, 55, 40)"/><path d="M 709.046,703.915 L 708.591,630.087" data-line="47" stroke-width="45.0" fill="none" stroke="rgb(68, 55, 40)"/><path d="M 781.811,800.038 L 708.469,799.83" data-line="54" stroke-width="45.0" fill="none" stroke="rgb(68, 55, 40)"/><path d="M 781.878,875.629 L 781.811,800.038" data-line="55" stroke-width="45.0" fill="none" stroke="rgb(68, 55, 40)"/><path d="M 781.878,875.629 L 708.353,875.524" data-line="56" stroke-width="45.0" fill="none" stroke="rgb(68, 55, 40)"/><path d="M 708.469,799.83 L 708.353,875.524" data-line="57" stroke-width="45.0" fill="none" stroke="rgb(68, 55, 40)"/></g></svg>