<svg xmlns="http://www.w3.org/2000/svg" width="1024" height="1024" viewBox="6.415000915527344 -40.32299995422363 1016.4410400390625 1104.6389770507812" class="colorable-icon reset-top-left-margin" data-export-recolorable-svg="true" overflow="visible" xmlns:xlink="http://www.w3.org/1999/xlink" fill="rgb(0, 0, 0)" stroke="none"><g fill="none" stroke="url(&quot;#theme-accent-gradient-linear&quot;) rgb(131, 94, 84)" stroke-width="45" stroke-linecap="round" stroke-linejoin="round"><path d="M 796.174,624.862 C 822.867,602.457 842.91,581.763 859.933,559.076 C 875.065,532.461 880.559,520.099 886.489,503.723 C 893.568,475.627 895.894,459.587 897.05,443.927 C 897.145,430.346 896.156,414.444 894.045,398.847 C 890.772,382.728 881.956,354.818 869.443,327.889 C 854.097,303.569 844.162,290.658 834.042,279.166 C 812.026,258.501 786.638,240.111 772.77,232.096 C 758.995,225.317 734.61,216.006 720.137,212.038 C 703.747,208.667 687.66,206.696 674.109,206.076 C 649.576,207.083 622.752,211.251 608.26,214.857 C 592.087,220.099 576.771,226.351 561.679,233.737 C 538.657,247.714 515.915,265.287 498.409,282.187 C 481.736,302.222 465.576,327.242 455.874,347.154 Q 448.724,366.798 425.928,458.355" data-line="nan" stroke-width="45.0" fill="none" stroke="url(&quot;#theme-accent-gradient-linear&quot;) rgb(131, 94, 84)"/><path d="M 106.516,842.547 C 106.979,861.073 108.652,879.069 111.528,895.128 C 115.349,909.521 120.11,922.556 126.437,936.046 C 134.369,949.134 144.488,962.894 155.937,975.563 C 167.361,985.831 178.537,994.165 192.225,1002.584 C 206.921,1009.592 219.675,1014.075 234.526,1017.695 C 250.515,1019.694 266.154,1019.836 281.647,1018.166 C 295.921,1015.049 310.201,1010.527 323.023,1005.061 C 336.511,997.53 350.366,987.805 361.703,978.054 C 372.895,966.288 381.872,954.832 391.74,939.456 C 398.575,925.974 404.93,909.948 409.4,894.273 Q 412.246,879.174 413.696,864.462" data-line="nan" stroke-width="45.0" fill="none" stroke="url(&quot;#theme-accent-gradient-linear&quot;) rgb(131, 94, 84)"/><path d="M 444.87382875432786,485.6740938758442 A 228.67339694046484,228.67339694046484 0 0,0 795.5596040762073,623.9508411245694" data-line="1.0" stroke-width="45.0" fill="none" stroke="url(&quot;#theme-accent-gradient-linear&quot;) rgb(131, 94, 84)"/><path d="M 470.243,5.245 L 51.415,4.677" data-line="2.0" stroke-width="45.0" fill="none" stroke="url(&quot;#theme-accent-gradient-linear&quot;) rgb(131, 94, 84)"/><path d="M 470.365,89.015 L 470.243,5.245" data-line="3.0" stroke-width="45.0" fill="none" stroke="url(&quot;#theme-accent-gradient-linear&quot;) rgb(131, 94, 84)"/><path d="M 470.365,89.015 L 414.008,90.361" data-line="4.0" stroke-width="45.0" fill="none" stroke="url(&quot;#theme-accent-gradient-linear&quot;) rgb(131, 94, 84)"/><path d="M 414.008,90.361 L 413.519,462.114" data-line="5.0" stroke-width="45.0" fill="none" stroke="url(&quot;#theme-accent-gradient-linear&quot;) rgb(131, 94, 84)"/><path d="M 105.268,90.674 L 106.516,842.547" data-line="6.0" stroke-width="45.0" fill="none" stroke="url(&quot;#theme-accent-gradient-linear&quot;) rgb(131, 94, 84)"/><path d="M 105.268,90.674 L 51.457,89.943" data-line="7.0" stroke-width="45.0" fill="none" stroke="url(&quot;#theme-accent-gradient-linear&quot;) rgb(131, 94, 84)"/><path d="M 51.457,89.943 L 51.415,4.677" data-line="8.0" stroke-width="45.0" fill="none" stroke="url(&quot;#theme-accent-gradient-linear&quot;) rgb(131, 94, 84)"/><path d="M 977.856,877.854 L 796.174,624.862" data-line="9.0" stroke-width="45.0" fill="none" stroke="url(&quot;#theme-accent-gradient-linear&quot;) rgb(131, 94, 84)"/><path d="M 413.696,864.462 L 413.924,758.428" data-line="13.0" stroke-width="45.0" fill="none" stroke="url(&quot;#theme-accent-gradient-linear&quot;) rgb(131, 94, 84)"/><path d="M 444.922,485.663 L 413.918,487.53" data-line="18.0" stroke-width="45.0" fill="none" stroke="url(&quot;#theme-accent-gradient-linear&quot;) rgb(131, 94, 84)"/><path d="M 413.924,758.428 L 413.918,487.53" data-line="20.0" stroke-width="45.0" fill="none" stroke="url(&quot;#theme-accent-gradient-linear&quot;) rgb(131, 94, 84)"/></g></svg>